<svg width="135" height="163" viewBox="0 0 135 163" fill="none" xmlns="http://www.w3.org/2000/svg">
<mask id="mask0_14_170" style="mask-type:luminance" maskUnits="userSpaceOnUse" x="0" y="0" width="135" height="163">
<path d="M0 0H135V163H0V0Z" fill="white"/>
</mask>
<g mask="url(#mask0_14_170)">
<path d="M45.2715 157.157C79.5813 169.593 117.476 151.86 129.911 117.551C142.347 83.2408 124.614 45.3462 90.3046 32.9107C55.9948 20.4751 18.1003 38.2077 5.66474 72.5175C-6.77081 106.827 10.9618 144.722 45.2715 157.157Z" fill="url(#paint0_linear_14_170)" stroke="black"/>
<mask id="mask1_14_170" style="mask-type:alpha" maskUnits="userSpaceOnUse" x="2" y="29" width="132" height="132">
<path d="M45.4399 156.688C79.4901 169.03 117.098 151.431 129.439 117.381C141.781 83.331 124.182 45.7232 90.1323 33.3817C56.0821 21.0403 18.4743 38.6387 6.13284 72.6888C-6.2086 106.739 11.3898 144.347 45.4399 156.688Z" fill="white"/>
</mask>
<g mask="url(#mask1_14_170)">
<path d="M57.758 24.432C59.9118 23.982 62.1001 23.717 64.299 23.64C65.839 23.57 67.376 23.482 68.913 23.433C70.7796 23.3664 72.6485 23.4256 74.507 23.61C77.71 23.928 80.755 24.838 83.82 25.713C85.036 26.058 86.23 26.475 87.433 26.864C91.244 28.088 94.652 30.102 97.915 32.37C100.149 33.8854 102.231 35.6145 104.13 37.533C107.85 41.3981 110.676 46.0324 112.409 51.109C113.88 55.4403 114.703 59.9652 114.851 64.537C114.98 67.727 114.949 70.922 114.757 74.109C114.524 78.178 114.394 82.25 114.178 86.317C114.052 88.847 113.881 91.375 113.718 93.904C113.514 97.367 113.301 100.829 113.109 104.294C112.994 106.326 112.898 108.36 112.82 110.394C112.506 119.294 113.141 128.102 115.269 136.777C115.979 139.661 116.685 142.55 117.268 145.461C118.01 149.047 117.651 152.773 116.238 156.152C114.428 160.546 110.455 162.317 106.504 162.061C104.518 161.934 102.588 161.355 100.861 160.367C99.4021 159.57 98.1727 158.411 97.291 157.002C96.8625 156.297 96.4537 155.58 96.065 154.852C95.42 153.566 94.4784 152.452 93.318 151.602C93.182 151.493 93.058 151.369 92.948 151.234C93.052 151.089 93.118 150.908 93.243 150.856C93.9906 150.491 94.8378 150.383 95.653 150.549C96.2053 150.624 96.7121 150.895 97.081 151.313C97.323 151.613 97.586 151.895 97.869 152.157C97.9059 152.199 97.9516 152.232 98.0028 152.253C98.054 152.275 98.1094 152.285 98.165 152.283C98.2205 152.281 98.2748 152.267 98.3243 152.242C98.3739 152.217 98.4174 152.181 98.452 152.138C98.5154 152.055 98.5609 151.96 98.5858 151.859C98.6108 151.757 98.6146 151.652 98.597 151.549C98.062 150.545 97.329 149.757 96.151 149.519C93.884 149.04 92.033 149.787 90.504 151.443C89.944 152.05 89.467 152.732 88.906 153.318C88.325 153.981 87.6912 154.597 87.011 155.158C86.2176 155.805 85.2737 156.241 84.2669 156.426C83.26 156.611 82.2227 156.539 81.251 156.217C79.815 155.776 78.6014 154.803 77.858 153.498C77.5139 152.871 77.2131 152.222 76.958 151.554C76.651 150.848 76.398 150.115 76.057 149.43C75.8137 148.937 75.5049 148.479 75.139 148.069C74.6312 147.478 73.939 147.075 73.1742 146.926C72.4094 146.777 71.6167 146.89 70.924 147.247C70.295 147.583 69.7057 147.989 69.167 148.457C68.621 148.913 68.165 149.478 67.635 149.965C66.935 150.659 66.195 151.311 65.419 151.917C63.7906 153.085 61.7888 153.612 59.7963 153.397C57.8038 153.182 55.9606 152.24 54.619 150.751C53.9529 149.947 53.3397 149.101 52.783 148.218C52.377 147.628 52.056 146.978 51.633 146.402C51.2438 145.87 50.8008 145.379 50.311 144.937C49.6882 144.38 48.8873 144.062 48.0517 144.042C47.216 144.021 46.4004 144.299 45.751 144.825C45.3189 145.164 44.9276 145.551 44.585 145.98C44.104 146.583 43.699 147.241 43.255 147.885C42.7147 148.717 42.043 149.456 41.266 150.073C40.0185 151.009 38.4614 151.435 36.9113 151.264C35.3612 151.092 33.9344 150.337 32.921 149.152C32.309 148.372 31.7653 147.541 31.296 146.668C30.88 145.958 30.574 145.182 30.161 144.48C29.073 142.589 27.494 141.461 25.241 141.363C24.012 141.312 23.124 141.881 22.345 142.676C22.3065 142.715 22.276 142.761 22.2554 142.811C22.2348 142.862 22.2245 142.916 22.225 142.971C22.212 143.131 22.253 143.291 22.341 143.425C22.3965 143.478 22.4644 143.516 22.5384 143.536C22.6125 143.557 22.6904 143.558 22.765 143.54C23.065 143.407 23.349 143.238 23.609 143.036C23.9983 142.728 24.4642 142.532 24.9567 142.468C25.4491 142.405 25.9495 142.477 26.404 142.677C26.854 142.871 27.287 143.101 27.699 143.366C27.7379 143.404 27.7676 143.45 27.7856 143.501C27.8036 143.553 27.8096 143.607 27.803 143.661C27.7967 143.715 27.7783 143.767 27.7492 143.813C27.7202 143.859 27.6811 143.897 27.635 143.926C27.439 144.023 27.235 144.107 27.032 144.194C26.0739 144.624 25.2139 145.245 24.505 146.02C23.905 146.663 23.315 147.32 22.717 147.967C21.1332 149.68 19.0184 150.809 16.714 151.172C14.542 151.605 12.294 151.442 10.207 150.7C6.88303 149.496 4.85403 147.126 4.10003 143.693C3.63903 141.619 3.75403 139.537 4.02303 137.448C4.25932 135.643 4.78471 133.889 5.57903 132.251C6.79152 129.72 8.02623 127.2 9.28303 124.691C11.8424 119.629 13.9131 114.334 15.467 108.878C16.8925 103.73 18.0415 98.5104 18.909 93.24C19.642 88.9 20.359 84.553 21.109 80.21C21.71 76.739 22.343 73.271 22.971 69.808C23.511 66.828 24.035 63.842 24.631 60.872C25.4473 56.4823 26.7036 52.1859 28.381 48.048C30.9975 41.6423 35.2773 36.0517 40.778 31.854C42.5455 30.5348 44.4386 29.393 46.43 28.445C50.034 26.6641 53.8366 25.317 57.758 24.432Z" fill="white"/>
<path d="M115.853 74.766C115.715 77.294 115.634 79.824 115.52 82.355C115.437 84.2256 115.342 86.0956 115.234 87.965C115.05 90.929 114.833 93.896 114.656 96.865C114.497 99.612 114.367 102.359 114.232 105.11C114.143 106.923 114.071 108.739 113.994 110.553C113.554 120.022 114.547 129.503 116.938 138.676C117.545 140.961 118.023 143.28 118.469 145.603C119.145 149.199 118.779 152.913 117.412 156.308C114.94 162.671 108.701 164.054 104.051 162.825C102.333 162.408 100.706 161.68 99.251 160.676C97.6886 159.532 96.4229 158.03 95.56 156.296C95.1879 155.559 94.7784 154.842 94.333 154.147C93.8208 153.289 93.0618 152.605 92.155 152.184C92.0086 152.107 91.8402 152.081 91.6775 152.112C91.5147 152.143 91.3672 152.228 91.259 152.353C90.884 152.75 90.545 153.189 90.169 153.59C89.491 154.336 88.846 155.085 88.117 155.734C86.8374 156.899 85.1867 157.575 83.4571 157.64C81.7275 157.705 80.0306 157.156 78.667 156.09C77.7631 155.383 77.038 154.473 76.55 153.434C76.237 152.793 76.011 152.108 75.724 151.454C75.4439 150.736 75.111 150.04 74.728 149.372C73.806 147.907 72.34 147.587 70.888 148.548C70.2224 149.035 69.5961 149.574 69.015 150.16C68.287 150.83 67.619 151.564 66.865 152.21C64.432 154.29 61.625 154.832 58.526 154.175C56.23 153.722 54.2054 152.381 52.891 150.445C52.231 149.501 51.655 148.492 51.007 147.537C50.657 146.977 50.2476 146.456 49.786 145.984C49.5505 145.728 49.2648 145.523 48.9466 145.383C48.6285 145.242 48.2848 145.169 47.937 145.167C47.589 145.165 47.2444 145.236 46.9251 145.374C46.6058 145.513 46.3187 145.716 46.082 145.971C45.5224 146.575 45.007 147.219 44.54 147.897C44.108 148.469 43.733 149.08 43.278 149.633C42.5715 150.52 41.6684 151.23 40.6402 151.708C39.612 152.186 38.4867 152.418 37.3534 152.386C36.22 152.354 35.1096 152.059 34.1099 151.524C33.1101 150.989 32.2485 150.229 31.593 149.304C31.059 148.539 30.598 147.72 30.131 146.913C29.851 146.436 29.639 145.926 29.373 145.447C29.009 144.784 28.763 144.694 28.021 144.921C27.1265 145.211 26.3185 145.72 25.67 146.401C25.092 146.989 24.554 147.619 24.006 148.235C20.649 152.019 16.347 153.167 11.573 152.228C6.371 151.219 3.203 147.62 2.746 142.101C2.635 140.738 2.724 139.357 2.721 137.982C2.974 136.006 3.521 134.079 4.345 132.265C5.5789 129.624 6.8517 127.001 8.163 124.397C10.9826 118.851 13.2031 113.021 14.787 107.005C15.9296 102.64 16.8772 98.2256 17.627 93.776C18.48 88.725 19.391 83.688 20.275 78.644C21.023 74.359 21.725 70.068 22.529 65.793C23.167 62.388 23.819 58.976 24.661 55.615C26.295 49.097 28.881 43.001 33.136 37.703C36.6523 33.2225 41.1689 29.6276 46.324 27.206C49.9978 25.4398 53.8653 24.1088 57.848 23.24C59.9543 22.8327 62.0871 22.5771 64.23 22.475C65.984 22.367 67.743 22.347 69.503 22.257C72.641 22.096 75.785 22.397 78.835 23.152C82.039 23.932 85.225 24.857 88.327 25.95C92.094 27.272 95.497 29.289 98.746 31.572C101.158 33.2205 103.39 35.1175 105.406 37.232C109.04 41.1762 111.803 45.841 113.516 50.923C115.009 55.4211 115.836 60.1135 115.97 64.851C116.133 68.171 116.03 71.468 115.853 74.766ZM106.502 162.06C110.461 162.318 114.435 160.547 116.236 156.152C117.656 152.777 118.024 149.052 117.291 145.464C116.707 142.552 116.002 139.664 115.292 136.779C113.164 128.105 112.529 119.297 112.843 110.396C112.912 108.363 113.008 106.329 113.132 104.296C113.324 100.832 113.516 97.367 113.741 93.906C113.891 91.376 114.062 88.848 114.2 86.32C114.4 82.25 114.53 78.178 114.779 74.111C114.971 70.924 115.003 67.73 114.874 64.539C114.726 59.9671 113.903 55.4423 112.432 51.111C110.698 46.0351 107.872 41.4013 104.153 37.536C102.252 35.6171 100.169 33.8877 97.933 32.372C94.671 30.104 91.263 28.09 87.452 26.866C86.262 26.479 85.075 26.063 83.838 25.715C80.773 24.84 77.728 23.93 74.526 23.612C72.6674 23.4275 70.7985 23.3683 68.932 23.435C67.395 23.485 65.858 23.571 64.318 23.642C62.1191 23.7189 59.9307 23.9839 57.777 24.434C53.8542 25.3187 50.0503 26.6658 46.445 28.447C44.4478 29.3934 42.549 30.5346 40.776 31.854C35.2756 36.0518 30.9962 41.6424 28.38 48.048C26.7034 52.1821 25.4471 56.4744 24.63 60.86C24.034 63.83 23.51 66.815 22.97 69.795C22.342 73.259 21.709 76.726 21.109 80.197C20.359 84.54 19.641 88.887 18.908 93.227C18.0406 98.4974 16.8916 103.717 15.466 108.865C13.9202 114.321 11.8576 119.617 9.306 124.681C8.04702 127.189 6.8123 129.709 5.602 132.241C4.80897 133.886 4.28692 135.648 4.056 137.46C3.792 139.545 3.671 141.631 4.133 143.705C4.899 147.14 6.918 149.491 10.24 150.713C12.326 151.454 14.575 151.617 16.747 151.184C19.0512 150.821 21.1658 149.692 22.75 147.98C23.347 147.332 23.937 146.675 24.538 146.032C25.243 145.263 26.097 144.646 27.048 144.217C27.251 144.129 27.454 144.045 27.65 143.949C27.6959 143.92 27.7348 143.881 27.7638 143.835C27.7929 143.79 27.8114 143.738 27.818 143.684C27.8243 143.63 27.8182 143.575 27.8004 143.524C27.7826 143.473 27.7534 143.426 27.715 143.388C27.2978 143.114 26.8582 142.877 26.401 142.677C25.9452 142.473 25.4422 142.398 24.9468 142.46C24.4513 142.522 23.9824 142.719 23.591 143.029C23.331 143.232 23.047 143.401 22.746 143.534C22.6715 143.551 22.5939 143.549 22.5202 143.529C22.4464 143.509 22.3787 143.471 22.323 143.419C22.2347 143.285 22.1936 143.125 22.206 142.965C22.2051 142.91 22.2153 142.856 22.2359 142.805C22.2566 142.755 22.2872 142.709 22.326 142.67C23.123 141.864 24.012 141.296 25.223 141.356C27.476 141.455 29.054 142.583 30.143 144.473C30.553 145.192 30.86 145.968 31.278 146.662C31.748 147.532 32.292 148.361 32.904 149.137C33.9168 150.323 35.3436 151.079 36.894 151.25C38.4443 151.421 40.0016 150.995 41.249 150.059C42.0256 149.442 42.697 148.703 43.237 147.871C43.68 147.239 44.089 146.582 44.567 145.966C44.9093 145.537 45.3007 145.149 45.733 144.811C46.3824 144.285 47.1976 144.007 48.033 144.027C48.8688 144.048 49.6698 144.366 50.293 144.923C50.783 145.365 51.226 145.855 51.615 146.388C52.039 146.964 52.359 147.614 52.765 148.204C53.322 149.087 53.935 149.933 54.602 150.736C55.9422 152.231 57.7872 153.178 59.783 153.396C61.7788 153.614 63.7847 153.087 65.416 151.917C66.1984 151.31 66.944 150.658 67.649 149.963C68.179 149.476 68.634 148.911 69.181 148.455C69.7194 147.987 70.3088 147.581 70.938 147.245C71.6306 146.888 72.4232 146.775 73.188 146.924C73.9527 147.073 74.6449 147.475 75.153 148.066C75.519 148.479 75.828 148.94 76.07 149.435C76.403 150.12 76.664 150.854 76.97 151.56C77.226 152.228 77.526 152.877 77.871 153.503C78.6137 154.809 79.827 155.782 81.263 156.223C82.2349 156.545 83.2722 156.617 84.2792 156.431C85.2861 156.246 86.2301 155.81 87.024 155.164C87.7042 154.602 88.338 153.987 88.919 153.323C89.482 152.721 89.959 152.039 90.518 151.449C92.046 149.793 93.898 149.046 96.164 149.525C97.342 149.771 98.074 150.567 98.61 151.555C98.628 151.658 98.6245 151.763 98.5995 151.864C98.5745 151.966 98.5287 152.06 98.465 152.143C98.4137 152.21 98.3416 152.258 98.26 152.279C98.1784 152.3 98.0922 152.293 98.015 152.259C97.9643 152.237 97.919 152.204 97.882 152.163C97.5994 151.901 97.336 151.619 97.094 151.319C96.7254 150.901 96.219 150.63 95.667 150.554C94.8516 150.389 94.0046 150.497 93.257 150.862C93.13 150.926 93.064 151.107 92.962 151.24C93.072 151.375 93.196 151.498 93.332 151.607C94.4919 152.458 95.4331 153.572 96.078 154.858C96.473 155.582 96.871 156.307 97.305 157.007C98.1861 158.417 99.4152 159.576 100.874 160.373C102.597 161.356 104.522 161.933 106.502 162.06Z" fill="black"/>
<path d="M92.7669 70.2C92.5627 72.713 91.4109 75.0544 89.5449 76.75C88.5558 77.7166 87.3297 78.4056 85.9898 78.7479C84.6499 79.0903 83.2434 79.0737 81.9119 78.7C80.9189 78.4468 79.9942 77.9773 79.2038 77.3251C78.4134 76.6728 77.7769 75.8539 77.3399 74.927C74.4619 69.34 77.8439 62.937 82.6829 61.307C84.4435 60.6983 86.3673 60.7651 88.0814 61.4944C89.7954 62.2236 91.1776 63.5635 91.9599 65.254C92.7168 66.7851 92.9979 68.5077 92.7669 70.2ZM77.3939 69.974C77.2658 71.1661 77.4298 72.3715 77.8719 73.486C78.3388 74.9131 79.2933 76.1303 80.5679 76.924C81.2929 77.308 82.0579 77.614 82.8469 77.836C83.0519 77.909 83.4279 78.039 83.5059 77.653C83.5179 77.543 83.2709 77.333 83.1009 77.232C82.7729 77.042 82.3909 76.928 82.0789 76.702C81.6086 76.4133 81.2078 76.0243 80.9053 75.5627C80.6027 75.1012 80.4059 74.5785 80.3289 74.032C80.2748 73.7328 80.3064 73.4245 80.4202 73.1426C80.534 72.8607 80.7253 72.6167 80.9719 72.439C81.2339 72.239 81.5469 72.093 81.7919 71.887C81.9307 71.7555 82.0367 71.5935 82.1017 71.4137C82.1667 71.234 82.1889 71.0416 82.1663 70.8518C82.1438 70.662 82.0772 70.4801 81.9719 70.3206C81.8667 70.1611 81.7256 70.0283 81.5599 69.933C81.3028 69.8193 81.0394 69.7205 80.7709 69.637C79.7749 69.243 79.5209 68.727 79.8609 67.709C79.9809 67.343 80.1479 66.994 80.3579 66.671C80.7559 66.079 81.1889 65.531 81.6269 64.944C81.8589 64.641 82.1369 64.369 82.3779 64.067C82.4989 63.9539 82.5797 63.8045 82.608 63.6413C82.6363 63.4782 82.6107 63.3102 82.5349 63.163C82.3819 62.89 81.9019 62.835 81.4869 63.083C81.0614 63.3345 80.6612 63.6265 80.2919 63.955C78.6739 65.494 77.7259 67.369 77.4099 69.975L77.3939 69.974ZM53.4139 75.502C50.3419 75.223 48.3609 73.765 47.1439 71.345C44.4619 66.035 47.5039 59.58 52.5259 57.86C54.1765 57.2776 55.9792 57.2929 57.6197 57.9033C59.2601 58.5136 60.6344 59.6803 61.5029 61.2C64.2879 66.048 62.0329 72.495 57.2749 74.752C56.0882 75.3709 54.7461 75.6315 53.4139 75.502ZM47.2939 66.064C47.1305 67.4814 47.3195 68.9171 47.8439 70.244C48.4061 71.7586 49.5148 73.0079 50.9519 73.746C51.6339 74.083 52.3329 74.448 53.1389 74.384C53.1875 74.3779 53.2339 74.3603 53.2742 74.3326C53.3146 74.305 53.3477 74.2681 53.3709 74.225C53.3806 74.1739 53.3778 74.1213 53.3629 74.0715C53.3479 74.0217 53.3212 73.9763 53.2849 73.939C52.9479 73.757 52.5849 73.624 52.2559 73.434C51.373 72.961 50.6962 72.1781 50.3559 71.236C49.9819 70.189 50.2159 69.471 51.1239 68.813C51.3549 68.672 51.5739 68.509 51.7759 68.328C51.8984 68.1973 51.9892 68.0402 52.0412 67.8688C52.0933 67.6974 52.1053 67.5164 52.0764 67.3396C52.0474 67.1629 51.9781 66.9951 51.874 66.8494C51.7699 66.7036 51.6337 66.5838 51.4759 66.499C51.1379 66.325 50.7519 66.243 50.3989 66.096C50.1078 65.9972 49.8667 65.7888 49.7266 65.5151C49.5866 65.2414 49.5587 64.9239 49.6489 64.63C49.7541 64.2037 49.923 63.7958 50.1499 63.42C50.5589 62.767 51.0279 62.159 51.4899 61.545C51.7519 61.192 52.0679 60.879 52.3389 60.531C52.4541 60.4113 52.5215 60.2535 52.5283 60.0875C52.5351 59.9215 52.4809 59.7588 52.3759 59.63C52.2481 59.522 52.0874 59.4608 51.9202 59.4565C51.7529 59.4521 51.5892 59.5048 51.4559 59.606C51.0694 59.8161 50.7046 60.064 50.3669 60.346C48.6781 61.8123 47.5849 63.8465 47.2939 66.064ZM67.3339 88.746C65.4136 88.591 63.603 87.7881 62.1989 86.469C61.3702 85.7295 60.8184 84.7295 60.6349 83.634C60.3149 81.584 61.6399 80.044 63.7169 80.131C64.211 80.1598 64.6998 80.2478 65.1729 80.393C67.0779 80.953 69.0649 81.182 71.0479 81.068C71.9299 80.968 72.8209 81.148 73.5939 81.582C74.0605 81.8286 74.4399 82.2128 74.6807 82.6823C74.9215 83.1519 75.012 83.6842 74.9399 84.207C74.8837 84.7844 74.7075 85.3436 74.4225 85.8489C74.1374 86.3541 73.75 86.7942 73.2849 87.141C71.7912 88.2974 69.935 88.8851 68.0479 88.799C67.8113 88.7663 67.5728 88.7486 67.3339 88.746ZM63.1609 85.904C64.5279 86.979 65.9309 87.741 67.5579 87.796C68.9609 87.842 70.3999 87.711 71.5929 86.79C70.3229 84.582 65.4599 83.842 63.1629 85.888L63.1609 85.904ZM122.397 67.49C122.577 68.075 122.623 68.694 122.531 69.3C122.51 69.5676 122.425 69.8264 122.284 70.0543C122.142 70.2823 121.948 70.4728 121.717 70.6098C121.486 70.7468 121.225 70.8262 120.957 70.8414C120.689 70.8566 120.422 70.8071 120.177 70.697C119.611 70.4567 119.093 70.1182 118.645 69.697C117.393 68.59 116.138 67.475 114.958 66.285C113.192 64.5798 111.277 63.0372 109.234 61.676C103.028 57.3906 96.2415 54.0126 89.0809 51.644C86.5065 50.7645 83.8962 49.9938 81.2569 49.334L81.5599 48.133C83.4919 48.61 85.4139 49.134 87.3269 49.705C94.5369 51.871 101.257 55.084 107.703 58.915C111.616 61.3106 115.221 64.1758 118.438 67.447C118.996 68 119.544 68.57 120.123 69.085C120.381 69.259 120.659 69.398 120.952 69.501C121.519 68.792 121.261 68.137 121.044 67.515C120.177 64.9218 119.111 62.3993 117.856 59.97C117.68 59.641 117.52 59.314 117.31 58.994L118.454 58.462C120.239 61.232 121.363 64.345 122.397 67.49Z" fill="black"/>
<path d="M121.064 67.506C121.281 68.128 121.538 68.796 120.972 69.492C120.679 69.3892 120.4 69.2494 120.143 69.076C119.556 68.56 119.033 67.993 118.458 67.437C115.244 64.1706 111.643 61.309 107.735 58.916C101.288 55.084 94.548 51.869 87.359 49.706C85.45 49.1326 83.5267 48.6081 81.591 48.133C79.4121 47.5913 77.2262 47.0779 75.034 46.593C72.104 45.933 69.164 45.87 66.204 45.873C63.423 45.865 60.625 45.89 57.843 46.032C51.3206 46.342 44.8576 47.4205 38.588 49.245C37.041 49.705 35.474 50.123 33.942 50.634C29.6589 52.1023 25.564 54.0706 21.742 56.498C21.126 56.884 20.506 57.27 19.869 57.617C19.596 57.718 19.312 57.787 19.022 57.82C18.966 57.521 18.848 57.294 18.902 57.115C19.0331 56.6328 19.2246 56.1692 19.472 55.735C20.8477 53.4988 22.3887 51.3685 24.082 49.362C26.4786 46.6075 29.5138 44.4825 32.922 43.173C36.2544 41.8913 39.6966 40.9159 43.206 40.259C48.1282 39.2723 53.1145 38.6373 58.127 38.359C62.9237 38.0369 67.7404 38.19 72.507 38.816C73.555 38.966 74.615 39.058 75.667 39.179C80.209 39.7803 84.6861 40.7976 89.042 42.218L89.895 42.493C94.5034 43.9467 99.0007 45.7313 103.352 47.833C106.487 49.2951 109.454 51.0908 112.204 53.189C114.248 54.7877 115.985 56.7428 117.333 58.96C117.523 59.278 117.703 59.608 117.879 59.937C119.134 62.3745 120.199 64.9054 121.064 67.507V67.506ZM117.969 64.85C118.015 64.7545 118.039 64.6503 118.041 64.5445C118.042 64.4387 118.021 64.3338 117.978 64.237C117.869 64.0401 117.719 63.8695 117.537 63.737C116.012 62.435 114.554 61.045 112.933 59.854C108.499 56.5615 103.71 53.7761 98.656 51.55C95.5115 50.1166 92.2937 48.8499 89.016 47.755C86.195 46.863 83.316 46.203 80.45 45.487C76.3821 44.4702 72.2221 43.8654 68.033 43.682C65.694 43.582 63.35 43.672 61.007 43.645C57.3248 43.6127 53.6464 43.8911 50.011 44.477C44.772 45.292 39.592 46.343 34.571 48.097C30.9618 49.2896 27.4765 50.8288 24.164 52.693C23.8169 52.8722 23.4857 53.0806 23.174 53.316C23.1015 53.3934 23.0472 53.486 23.015 53.587C22.9829 53.688 22.9736 53.795 22.988 53.9C23.0047 53.9684 23.0362 54.0324 23.0804 54.0872C23.1246 54.142 23.1803 54.1865 23.2436 54.2173C23.3069 54.2481 23.3762 54.2646 23.4467 54.2656C23.5171 54.2666 23.5868 54.2521 23.651 54.223C24.1213 54.053 24.5771 53.8453 25.014 53.602C29.2143 51.3892 33.6321 49.6164 38.197 48.312C42.5423 47.0778 46.9726 46.1653 51.452 45.582C54.6594 45.1629 57.8894 44.9412 61.124 44.918C64.837 44.846 68.483 45.068 72.132 45.334C75.799 45.916 79.403 46.54 83.004 47.444C86.6361 48.3194 90.2009 49.4536 93.671 50.838C98.263 52.715 102.782 54.766 107.001 57.419C110.288 59.4314 113.401 61.7168 116.305 64.251C116.635 64.547 117 64.801 117.391 65.01C117.49 65.0312 117.593 65.0275 117.691 64.999C117.788 64.9706 117.877 64.9183 117.949 64.847L117.969 64.85Z" fill="#32BAE2"/>
<path d="M117.962 64.236C118.004 64.3329 118.024 64.4375 118.023 64.543C118.021 64.6484 117.997 64.7524 117.953 64.848C117.877 64.9192 117.785 64.9699 117.684 64.9951C117.583 65.0203 117.477 65.0192 117.377 64.992C116.985 64.7842 116.621 64.5293 116.291 64.233C113.387 61.6988 110.274 59.4138 106.986 57.402C102.764 54.744 98.249 52.694 93.656 50.82C90.1862 49.4356 86.6218 48.3014 82.99 47.426C79.389 46.522 75.785 45.899 72.118 45.317C68.468 45.05 64.802 44.827 61.11 44.901C57.8755 44.9238 54.6454 45.1452 51.438 45.564C46.9587 46.1473 42.5283 47.0597 38.183 48.294C33.6182 49.5984 29.2004 51.3712 25 53.584C24.5628 53.8273 24.1067 54.035 23.636 54.205C23.572 54.2341 23.5023 54.2486 23.4319 54.2476C23.3615 54.2466 23.2923 54.2301 23.229 54.1993C23.1658 54.1684 23.1102 54.124 23.0661 54.0691C23.022 54.0143 22.9906 53.9504 22.974 53.882C22.9596 53.777 22.9688 53.67 23.001 53.569C23.0332 53.4679 23.0875 53.3754 23.16 53.298C23.471 53.063 23.803 52.855 24.15 52.675C27.4626 50.8107 30.9478 49.2715 34.557 48.079C39.578 46.326 44.757 45.274 49.997 44.459C53.6322 43.8734 57.3102 43.5954 60.992 43.628C63.336 43.654 65.68 43.565 68.019 43.665C72.208 43.848 76.368 44.453 80.436 45.47C83.301 46.186 86.181 46.846 89.001 47.738C92.2702 48.8379 95.4793 50.109 98.615 51.546C103.669 53.772 108.458 56.5573 112.892 59.85C114.505 61.04 115.971 62.43 117.497 63.734C117.688 63.864 117.847 64.036 117.962 64.236ZM118.454 58.443L117.31 58.975C115.963 56.7575 114.225 54.8021 112.182 53.203C109.432 51.105 106.464 49.3096 103.329 47.848C98.9782 45.7462 94.4811 43.9616 89.873 42.508L90.257 41.316C95.7482 43.0059 101.074 45.1912 106.17 47.845C109.666 49.662 112.927 51.762 115.648 54.63C115.814 54.756 115.994 54.861 116.184 54.943C116.225 54.59 116.275 54.336 116.283 54.082L117.539 54.119C117.512 54.354 117.524 54.603 117.517 54.841C117.449 56.1097 117.776 57.3683 118.454 58.443Z" fill="black"/>
<path d="M117.533 54.101L116.278 54.064C116.337 50.321 116.441 46.587 116.422 42.847C116.39 39.6624 115.995 36.4918 115.243 33.397C113.478 25.937 109.603 19.857 103.479 15.222C98.935 11.778 93.767 9.57901 88.323 7.98201C86.124 7.34726 83.9033 6.79024 81.665 6.31201C79.104 5.75001 76.544 5.17201 73.887 5.22201C71.657 5.25701 69.421 5.18601 67.189 5.19701C62.5557 5.1984 57.9438 5.82471 53.478 7.05901C43.781 9.77401 36.676 15.577 32.376 24.744C30.8169 28.1465 29.6397 31.7112 28.866 35.373C28.446 37.279 28.016 39.185 27.604 41.093C27.477 41.696 27.374 42.302 27.26 42.906C27.145 43.51 27.03 44.045 26.872 44.813C27.358 44.563 27.664 44.443 27.931 44.267C30.2083 42.8475 32.6614 41.7317 35.228 40.948C40.668 39.202 46.266 38.235 51.921 37.596C55.1866 37.2037 58.4711 36.9874 61.76 36.948C63.9915 36.8752 66.2254 36.934 68.45 37.124C71.39 37.461 74.338 37.751 77.273 38.137C79.2091 38.3916 81.1302 38.7498 83.028 39.21C85.461 39.814 87.865 40.539 90.258 41.275L89.874 42.465L89.021 42.191C84.6651 40.7706 80.188 39.7533 75.646 39.152L72.486 38.789C67.7195 38.1627 62.9027 38.0093 58.106 38.331C53.093 38.61 48.106 39.245 43.184 40.231C39.6749 40.8884 36.233 41.8641 32.901 43.146C29.4928 44.4555 26.4575 46.5805 24.061 49.335C22.3677 51.3415 20.8267 53.4718 19.451 55.708C19.2036 56.1422 19.0121 56.6058 18.881 57.088C18.827 57.267 18.944 57.506 19.001 57.793C19.291 57.76 19.575 57.691 19.848 57.59C20.484 57.251 21.105 56.857 21.721 56.471C25.543 54.0435 29.6379 52.0753 33.921 50.607C35.453 50.096 37.02 49.679 38.567 49.218C44.8366 47.3931 51.2996 46.3143 57.822 46.004C60.6071 45.8691 63.3957 45.816 66.184 45.845C69.144 45.843 72.084 45.905 75.013 46.567C77.208 47.057 79.393 47.56 81.57 48.107L81.268 49.307C79.6878 48.9107 78.098 48.5539 76.5 48.237C74.3162 47.7681 72.102 47.4543 69.874 47.298C67.1387 47.1404 64.3983 47.0894 61.659 47.145C54.068 47.2524 46.5228 48.3408 39.211 50.383C35.4568 51.4405 31.8041 52.8297 28.296 54.534C26.346 55.496 24.486 56.632 22.581 57.698C22.093 57.971 21.629 58.284 21.137 58.548C20.7969 58.7394 20.4397 58.8984 20.07 59.023C18.428 59.518 17.25 58.481 17.585 56.791C17.695 56.246 17.905 55.726 18.202 55.256C20.069 52.334 21.989 49.451 24.499 47.018C24.991 46.568 25.327 45.974 25.459 45.321C26.1307 41.8691 26.8474 38.4262 27.609 34.993C28.797 29.556 30.652 24.377 33.707 19.677C36.8499 14.817 41.2545 10.9025 46.45 8.35201C51.148 6.01001 56.173 4.83301 61.362 4.24001C64.1916 3.95132 67.0348 3.81745 69.879 3.83901C70.057 3.82501 70.233 3.79401 70.404 3.74701C70.495 3.55001 70.572 3.34701 70.634 3.13901C71.004 1.64601 72.118 0.979007 73.474 0.605007C73.584 0.584007 73.695 0.572007 73.807 0.569007C76.0873 0.311961 78.3962 0.57698 80.559 1.34401C82.159 1.94001 83.179 3.01601 83.108 4.85601C83.125 5.00301 83.164 5.14601 83.223 5.28101C84.13 5.52501 85.085 5.80801 86.055 6.03801C91.3899 7.25932 96.5005 9.30884 101.201 12.112C109.177 16.963 114.311 23.909 116.527 33.001C117.536 37.4155 117.956 41.9443 117.775 46.469C117.698 49.004 117.608 51.549 117.533 54.101ZM81.6 4.76501C81.731 3.62301 81.162 3.02301 80.246 2.68301C78.2016 1.91751 76.0007 1.6648 73.836 1.94701C73.5038 1.98331 73.1823 2.08637 72.891 2.25001C72.6011 2.37858 72.3666 2.60626 72.2295 2.89217C72.0924 3.17809 72.0617 3.50351 72.143 3.81001C73.749 3.88001 75.303 3.93501 76.853 4.01801C78.403 4.10201 79.944 4.88401 81.6 4.76501Z" fill="black"/>
<path d="M116.275 54.065C116.27 54.319 116.216 54.572 116.176 54.925C115.985 54.8431 115.805 54.7384 115.639 54.613C112.919 51.744 109.624 49.641 106.161 47.828C101.065 45.1742 95.7391 42.9889 90.2479 41.299C87.8629 40.556 85.4519 39.83 83.0179 39.234C81.1202 38.7738 79.1991 38.4156 77.2629 38.161C74.3289 37.758 71.3799 37.486 68.4389 37.148C66.2143 36.958 63.9805 36.8993 61.7489 36.972C58.4603 37.0117 55.1763 37.2284 51.9109 37.621C46.2559 38.26 40.6599 39.21 35.2169 40.972C32.6507 41.756 30.1979 42.8722 27.9209 44.292C27.6539 44.467 27.3479 44.588 26.8619 44.837C27.0199 44.069 27.1349 43.497 27.2499 42.93C27.3639 42.363 27.4669 41.72 27.5939 41.117C28.0099 39.21 28.4439 37.305 28.8559 35.397C29.6298 31.7353 30.807 28.1705 32.3659 24.768C36.6659 15.601 43.7699 9.79802 53.4669 7.08302C57.9334 5.84855 62.546 5.22223 67.1799 5.22102C69.4119 5.21002 71.6469 5.28102 73.8779 5.24502C76.5349 5.19602 79.0939 5.77502 81.6559 6.33602C83.8942 6.81428 86.1149 7.37129 88.3139 8.00602C93.7589 9.59102 98.9139 11.801 103.47 15.246C109.594 19.881 113.469 25.961 115.234 33.421C115.986 36.5158 116.381 39.6864 116.413 42.871C116.439 46.587 116.333 50.33 116.275 54.065ZM84.3559 22.635C85.2209 20.342 84.4999 18.444 82.4479 17.533C81.5235 17.0924 80.4962 16.9126 79.4771 17.0131C78.4579 17.1135 77.4856 17.4904 76.6649 18.103C76.2169 18.419 75.7629 18.786 75.3089 19.154C74.9459 18.73 74.6349 18.324 74.2959 17.939C73.678 17.1873 72.8786 16.6055 71.9733 16.2485C71.068 15.8916 70.0867 15.7713 69.1219 15.899C66.9039 16.139 65.6379 17.558 65.6269 19.771C65.649 21.3515 66.2878 22.8608 67.4069 23.977C69.193 25.8764 71.3906 27.3413 73.8309 28.259C74.0899 28.359 74.3699 28.392 74.6439 28.352C77.2751 28.0045 79.7892 27.0489 81.9869 25.561C83.0619 24.8553 83.8903 23.8322 84.3569 22.634L84.3559 22.635Z" fill="#64CCF5"/>
</g>
<mask id="mask2_14_170" style="mask-type:alpha" maskUnits="userSpaceOnUse" x="10" y="-10" width="137" height="125">
<path d="M47.888 -6.57701C56.395 -14.654 103.621 -1.25701 106.498 -0.21401C115.936 12.662 136.699 42.446 144.246 58.573C153.679 78.733 133.715 96.608 132.524 99.896C131.57 102.526 115.676 109.6 107.848 112.808C88.838 113.513 50.068 114.931 47.08 114.964C44.092 114.997 31.039 109.614 24.885 106.919L17.476 94.003C15.33 77.26 10.993 43.385 10.812 41.831C10.585 39.89 39.38 1.49999 47.888 -6.57701Z" fill="#C4C4C4"/>
</mask>
<g mask="url(#mask2_14_170)">
<path d="M57.765 24.432C59.9184 23.982 62.1064 23.717 64.305 23.64C65.845 23.57 67.382 23.483 68.919 23.433C70.7855 23.3664 72.6544 23.4255 74.513 23.61C77.716 23.929 80.761 24.838 83.826 25.713C85.042 26.058 86.236 26.476 87.44 26.865C91.25 28.089 94.658 30.102 97.921 32.37C100.156 33.8857 102.237 35.6152 104.137 37.534C107.856 41.399 110.682 46.033 112.415 51.109C113.887 55.4401 114.71 59.965 114.858 64.537C114.986 67.727 114.955 70.922 114.763 74.109C114.53 78.178 114.4 82.251 114.184 86.317C114.058 88.847 113.887 91.375 113.724 93.904C113.52 97.368 113.308 100.83 113.115 104.294C113 106.326 112.904 108.36 112.827 110.394C112.512 119.295 113.147 128.102 115.275 136.777C115.985 139.662 116.691 142.55 117.274 145.461C118.016 149.047 117.657 152.774 116.244 156.152C114.435 160.547 110.461 162.317 106.51 162.061C104.524 161.934 102.594 161.355 100.867 160.367C99.4085 159.57 98.1794 158.411 97.298 157.002C96.864 156.302 96.466 155.577 96.071 154.852C95.426 153.566 94.4849 152.453 93.325 151.602C93.1888 151.493 93.0647 151.37 92.955 151.234C93.058 151.09 93.125 150.908 93.25 150.857C93.9975 150.492 94.8447 150.383 95.66 150.549C96.2121 150.624 96.7187 150.896 97.087 151.314C97.329 151.614 97.592 151.896 97.875 152.157C97.9117 152.199 97.9572 152.233 98.0085 152.255C98.0597 152.277 98.1152 152.288 98.171 152.286C98.2269 152.284 98.2816 152.27 98.3312 152.244C98.3809 152.219 98.4242 152.182 98.458 152.138C98.5213 152.055 98.5668 151.96 98.5918 151.859C98.6167 151.758 98.6206 151.653 98.603 151.55C98.068 150.546 97.336 149.757 96.157 149.519C93.89 149.041 92.039 149.787 90.511 151.443C89.951 152.05 89.474 152.732 88.912 153.318C88.3312 153.982 87.6975 154.597 87.017 155.158C86.2235 155.805 85.2797 156.241 84.2728 156.426C83.266 156.611 82.2287 156.539 81.257 156.217C79.8208 155.776 78.6071 154.804 77.864 153.498C77.5198 152.872 77.2191 152.223 76.964 151.555C76.658 150.849 76.404 150.116 76.064 149.43C75.8204 148.937 75.5113 148.479 75.145 148.069C74.6372 147.478 73.9449 147.076 73.1801 146.927C72.4153 146.778 71.6225 146.891 70.93 147.248C70.3008 147.584 69.7114 147.99 69.173 148.458C68.627 148.914 68.171 149.479 67.641 149.965C66.9416 150.659 66.2017 151.311 65.425 151.917C63.7967 153.085 61.7951 153.612 59.8028 153.397C57.8106 153.181 55.9675 152.24 54.626 150.751C53.9596 149.947 53.346 149.101 52.789 148.218C52.383 147.628 52.063 146.978 51.639 146.403C51.2503 145.87 50.8072 145.379 50.317 144.938C49.6941 144.381 48.8932 144.063 48.0576 144.043C47.2221 144.022 46.4065 144.3 45.757 144.826C45.3247 145.164 44.9334 145.551 44.591 145.98C44.11 146.584 43.705 147.241 43.261 147.886C42.721 148.718 42.0492 149.457 41.272 150.073C40.025 151.01 38.4676 151.436 36.9171 151.265C35.3666 151.094 33.9397 150.338 32.927 149.152C32.3151 148.373 31.7717 147.542 31.303 146.669C30.886 145.958 30.58 145.182 30.167 144.48C29.079 142.589 27.5 141.461 25.247 141.363C24.019 141.312 23.13 141.881 22.351 142.677C22.3118 142.715 22.2809 142.761 22.2602 142.812C22.2396 142.863 22.2296 142.917 22.231 142.972C22.2187 143.132 22.2598 143.292 22.348 143.426C22.404 143.478 22.4717 143.515 22.5454 143.535C22.6191 143.555 22.6965 143.557 22.771 143.54C23.072 143.408 23.356 143.238 23.615 143.036C24.0043 142.728 24.4703 142.532 24.9628 142.469C25.4552 142.405 25.9556 142.478 26.41 142.678C26.86 142.871 27.294 143.101 27.706 143.366C27.7446 143.404 27.7741 143.451 27.7921 143.502C27.8101 143.553 27.8162 143.608 27.8099 143.662C27.8036 143.716 27.7852 143.768 27.7559 143.813C27.7267 143.859 27.6874 143.898 27.641 143.926C27.445 144.023 27.241 144.107 27.038 144.195C26.0799 144.624 25.2199 145.246 24.511 146.02C23.911 146.663 23.321 147.32 22.723 147.968C21.1388 149.68 19.0242 150.809 16.72 151.172C14.548 151.605 12.3 151.442 10.213 150.701C6.88901 149.496 4.86001 147.126 4.10601 143.693C3.64501 141.619 3.76001 139.537 4.02901 137.448C4.26557 135.643 4.79095 133.889 5.58501 132.251C6.79783 129.72 8.03288 127.2 9.29001 124.691C11.8494 119.629 13.9197 114.334 15.473 108.878C16.8989 103.731 18.0482 98.511 18.916 93.241C19.649 88.9 20.366 84.553 21.116 80.21C21.716 76.739 22.349 73.272 22.977 69.808C23.517 66.828 24.041 63.842 24.637 60.873C25.4533 56.4833 26.7096 52.1869 28.387 48.049C31.0035 41.6433 35.2833 36.0527 40.784 31.855C42.5518 30.5354 44.4452 29.3932 46.437 28.445C50.041 26.664 53.8436 25.317 57.765 24.432Z" fill="white"/>
<path d="M115.859 74.766C115.721 77.294 115.64 79.824 115.526 82.356C115.443 84.2266 115.348 86.0966 115.24 87.966C115.056 90.929 114.839 93.896 114.663 96.865C114.504 99.613 114.373 102.36 114.238 105.11C114.15 106.924 114.077 108.739 114 110.554C113.56 120.023 114.553 129.504 116.945 138.677C117.551 140.961 118.03 143.28 118.475 145.603C119.152 149.199 118.785 152.914 117.418 156.308C114.946 162.672 108.708 164.055 104.058 162.825C102.34 162.408 100.713 161.68 99.258 160.676C97.6955 159.532 96.4296 158.03 95.566 156.297C95.1939 155.56 94.7844 154.842 94.339 154.147C93.8265 153.289 93.0676 152.605 92.161 152.184C92.0144 152.107 91.8463 152.082 91.6837 152.113C91.5211 152.144 91.3737 152.228 91.265 152.353C90.89 152.751 90.551 153.189 90.175 153.591C89.498 154.336 88.852 155.085 88.123 155.734C87.2755 156.508 86.2579 157.071 85.1524 157.379C84.0469 157.687 82.8845 157.73 81.759 157.506C80.6334 157.283 79.576 156.798 78.6724 156.09C77.7687 155.383 77.0441 154.473 76.557 153.434C76.243 152.793 76.017 152.109 75.73 151.454C75.4495 150.736 75.1166 150.041 74.734 149.372C73.812 147.908 72.346 147.587 70.894 148.548C70.2284 149.036 69.6022 149.575 69.021 150.161C68.294 150.831 67.625 151.565 66.871 152.211C64.439 154.29 61.631 154.832 58.533 154.176C56.2369 153.722 54.2123 152.382 52.898 150.445C52.236 149.501 51.661 148.492 51.013 147.537C50.663 146.977 50.2536 146.457 49.792 145.985C49.5572 145.728 49.2717 145.523 48.9536 145.382C48.6354 145.241 48.2915 145.168 47.9436 145.167C47.5957 145.165 47.2512 145.236 46.932 145.374C46.6128 145.513 46.3258 145.716 46.089 145.971C45.5291 146.575 45.0134 147.219 44.546 147.897C44.114 148.469 43.739 149.081 43.285 149.634C42.5782 150.521 41.6751 151.231 40.647 151.709C39.6186 152.186 38.4934 152.417 37.3602 152.385C36.2271 152.353 35.1168 152.058 34.117 151.524C33.1169 150.989 32.2549 150.229 31.599 149.304C31.066 148.539 30.604 147.72 30.137 146.913C29.858 146.437 29.645 145.927 29.379 145.447C29.015 144.784 28.769 144.694 28.027 144.922C27.1326 145.212 26.3246 145.72 25.676 146.401C25.098 146.989 24.561 147.619 24.012 148.235C20.655 152.019 16.353 153.168 11.579 152.228C6.37703 151.219 3.20903 147.62 2.75203 142.101C2.64203 140.738 2.73003 139.357 2.72703 137.982C2.98103 136.006 3.52703 134.079 4.35103 132.266C5.58493 129.624 6.85773 127.001 8.16903 124.397C10.9888 118.852 13.2093 113.021 14.793 107.005C15.9357 102.64 16.8833 98.2263 17.633 93.777C18.486 88.725 19.398 83.688 20.282 78.644C21.029 74.359 21.732 70.068 22.535 65.793C23.174 62.388 23.825 58.976 24.668 55.615C26.301 49.097 28.887 43.002 33.142 37.703C36.6584 33.2225 41.1749 29.6275 46.33 27.206C50.0038 25.4398 53.8714 24.1088 57.854 23.24C59.9603 22.8327 62.0931 22.577 64.236 22.475C65.99 22.368 67.75 22.348 69.509 22.257C72.647 22.096 75.791 22.397 78.841 23.152C82.045 23.932 85.231 24.858 88.333 25.951C92.1 27.272 95.503 29.289 98.753 31.572C101.165 33.2205 103.397 35.1176 105.413 37.232C109.047 41.1762 111.809 45.841 113.522 50.923C115.015 55.4211 115.842 60.1134 115.977 64.851C116.139 68.171 116.036 71.468 115.859 74.766ZM106.508 162.061C110.467 162.318 114.441 160.547 116.243 156.152C117.663 152.777 118.03 149.051 117.297 145.464C116.714 142.553 116.008 139.664 115.298 136.779C113.17 128.105 112.535 119.297 112.849 110.397C112.918 108.363 113.014 106.33 113.138 104.297C113.33 100.832 113.522 97.367 113.747 93.907C113.898 91.377 114.069 88.847 114.207 86.32C114.406 82.251 114.537 78.179 114.786 74.112C114.977 70.925 115.009 67.73 114.88 64.54C114.732 59.9681 113.909 55.4432 112.438 51.112C110.705 46.0356 107.878 41.4013 104.159 37.536C102.258 35.6167 100.175 33.8872 97.939 32.372C94.677 30.104 91.269 28.091 87.459 26.867C86.268 26.479 85.081 26.063 83.845 25.715C80.78 24.84 77.735 23.931 74.532 23.612C72.6734 23.4274 70.8046 23.3683 68.938 23.435C67.401 23.485 65.864 23.572 64.324 23.642C62.1254 23.7189 59.9375 23.9839 57.784 24.434C53.8609 25.3186 50.0566 26.6657 46.451 28.447C44.4542 29.3937 42.5556 30.5353 40.783 31.855C35.2821 36.0522 31.0019 41.6425 28.385 48.048C26.7091 52.1821 25.4534 56.4744 24.637 60.86C24.041 63.83 23.517 66.815 22.977 69.795C22.349 73.259 21.717 76.726 21.116 80.198C20.366 84.541 19.648 88.888 18.916 93.228C18.0481 98.4983 16.8988 103.718 15.473 108.866C13.9271 114.321 11.8644 119.617 9.31303 124.681C8.05405 127.189 6.81933 129.709 5.60903 132.241C4.81614 133.886 4.29409 135.648 4.06303 137.46C3.79903 139.546 3.67903 141.631 4.14003 143.705C4.90703 147.14 6.92503 149.492 10.247 150.713C12.334 151.454 14.582 151.617 16.754 151.184C19.0582 150.821 21.1729 149.692 22.757 147.98C23.354 147.332 23.944 146.676 24.545 146.032C25.25 145.263 26.104 144.646 27.055 144.217C27.258 144.129 27.461 144.046 27.658 143.949C27.704 143.92 27.7429 143.881 27.7719 143.836C27.8008 143.79 27.819 143.738 27.8252 143.684C27.8313 143.63 27.8252 143.575 27.8074 143.524C27.7895 143.473 27.7604 143.426 27.722 143.388C27.3048 143.115 26.8653 142.877 26.408 142.678C25.9522 142.474 25.4493 142.399 24.9538 142.461C24.4584 142.523 23.9895 142.72 23.598 143.03C23.338 143.232 23.055 143.402 22.753 143.534C22.6785 143.551 22.6009 143.549 22.5272 143.529C22.4534 143.509 22.3857 143.471 22.33 143.419C22.2421 143.285 22.2013 143.126 22.214 142.966C22.2133 142.911 22.2236 142.857 22.2442 142.806C22.2648 142.756 22.2954 142.71 22.334 142.671C23.13 141.865 24.019 141.296 25.23 141.357C27.483 141.455 29.062 142.583 30.15 144.474C30.56 145.192 30.867 145.968 31.285 146.662C31.755 147.533 32.299 148.361 32.911 149.138C33.9245 150.323 35.3513 151.078 36.9014 151.249C38.4514 151.42 40.0084 150.995 41.256 150.059C42.0327 149.442 42.7041 148.703 43.244 147.871C43.687 147.239 44.096 146.582 44.574 145.966C44.9166 145.537 45.3079 145.149 45.74 144.811C46.3894 144.285 47.205 144.007 48.0407 144.027C48.8763 144.048 49.6773 144.365 50.3 144.923C50.79 145.365 51.234 145.856 51.623 146.388C52.046 146.964 52.367 147.614 52.773 148.204C53.3296 149.087 53.9432 149.934 54.61 150.737C55.9508 152.231 57.7956 153.177 59.7909 153.395C61.7862 153.613 63.7917 153.086 65.423 151.917C66.2056 151.311 66.9513 150.658 67.656 149.963C68.186 149.476 68.642 148.911 69.188 148.455C69.7264 147.987 70.3158 147.581 70.945 147.245C71.6377 146.888 72.4304 146.775 73.1952 146.925C73.9599 147.074 74.6521 147.476 75.16 148.067C75.526 148.48 75.835 148.94 76.077 149.436C76.41 150.12 76.672 150.854 76.977 151.56C77.233 152.228 77.534 152.877 77.878 153.504C78.6214 154.809 79.835 155.782 81.271 156.223C82.2427 156.545 83.28 156.617 84.2869 156.432C85.2937 156.247 86.2376 155.811 87.031 155.164C87.7112 154.603 88.345 153.987 88.926 153.324C89.49 152.721 89.967 152.04 90.525 151.449C92.053 149.793 93.905 149.046 96.171 149.525C97.349 149.771 98.081 150.567 98.618 151.555C98.6358 151.658 98.632 151.763 98.6069 151.865C98.5818 151.966 98.5358 152.061 98.472 152.144C98.4199 152.209 98.3479 152.256 98.2668 152.277C98.1858 152.298 98.1002 152.291 98.023 152.259C97.9718 152.237 97.926 152.205 97.889 152.163C97.6064 151.901 97.3431 151.619 97.101 151.319C96.7323 150.901 96.2259 150.63 95.674 150.555C94.8588 150.389 94.0116 150.497 93.264 150.862C93.137 150.926 93.071 151.108 92.969 151.24C93.079 151.375 93.203 151.499 93.339 151.608C94.4991 152.458 95.4403 153.572 96.085 154.858C96.48 155.582 96.878 156.307 97.312 157.008C98.1935 158.417 99.4225 159.576 100.881 160.373C102.604 161.356 104.528 161.934 106.508 162.061Z" fill="black"/>
<path d="M92.773 70.2C92.5691 72.7129 91.4177 75.0543 89.552 76.75C88.5628 77.7167 87.3364 78.4059 85.9963 78.7482C84.6562 79.0905 83.2496 79.0739 81.918 78.7C80.9249 78.4472 80.0001 77.9779 79.2097 77.3258C78.4193 76.6737 77.7829 75.8549 77.346 74.928C74.468 69.341 77.85 62.938 82.689 61.308C84.4495 60.6992 86.3734 60.7658 88.0876 61.4948C89.8019 62.2239 91.1843 63.5635 91.967 65.254C92.7235 66.7852 93.0043 68.5078 92.773 70.2ZM77.4 69.974C77.2716 71.1664 77.4357 72.3722 77.878 73.487C78.3449 74.9141 79.2994 76.1312 80.574 76.925C81.3 77.308 82.064 77.614 82.853 77.837C83.059 77.91 83.435 78.039 83.512 77.653C83.525 77.543 83.277 77.333 83.108 77.232C82.779 77.042 82.398 76.928 82.086 76.703C81.6153 76.4145 81.2142 76.0255 80.9113 75.564C80.6084 75.1024 80.4113 74.5796 80.334 74.033C80.28 73.7336 80.3118 73.425 80.4257 73.143C80.5397 72.8609 80.7311 72.6168 80.978 72.439C81.24 72.239 81.553 72.093 81.799 71.887C81.9376 71.7555 82.0437 71.5935 82.1086 71.4138C82.1735 71.2341 82.1955 71.0417 82.1729 70.852C82.1503 70.6622 82.0836 70.4804 81.9782 70.321C81.8728 70.1617 81.7317 70.0291 81.566 69.934C81.3088 69.82 81.0454 69.7208 80.777 69.637C79.781 69.243 79.527 68.728 79.867 67.709C79.987 67.343 80.154 66.994 80.365 66.671C80.762 66.079 81.195 65.532 81.633 64.944C81.866 64.642 82.143 64.369 82.384 64.067C82.5052 63.9541 82.5863 63.8047 82.6148 63.6415C82.6433 63.4783 82.6178 63.3103 82.542 63.163C82.388 62.89 81.908 62.835 81.492 63.084C81.0669 63.3352 80.667 63.6269 80.298 63.955C78.68 65.495 77.732 67.369 77.417 69.975L77.4 69.974ZM53.42 75.502C50.349 75.224 48.367 73.765 47.151 71.345C44.468 66.035 47.511 59.581 52.532 57.861C54.1826 57.2788 55.9852 57.2942 57.6256 57.9045C59.266 58.5149 60.6403 59.6815 61.509 61.201C64.295 66.049 62.039 72.495 57.281 74.751C56.0943 75.3703 54.7532 75.6312 53.421 75.502H53.42ZM47.3 66.065C47.1367 67.482 47.3257 68.9174 47.85 70.244C48.4123 71.7588 49.5214 73.0082 50.959 73.746C51.64 74.084 52.339 74.448 53.145 74.384C53.1937 74.378 53.2403 74.3605 53.2808 74.3328C53.3214 74.3052 53.3547 74.2682 53.378 74.225C53.3874 74.174 53.3844 74.1215 53.3693 74.0718C53.3542 74.0222 53.3273 73.977 53.291 73.94C52.954 73.757 52.591 73.624 52.262 73.435C51.3788 72.9618 50.7019 72.1785 50.362 71.236C49.988 70.189 50.223 69.471 51.13 68.814C51.362 68.672 51.58 68.51 51.783 68.329C51.9056 68.1982 51.9965 68.0411 52.0488 67.8696C52.101 67.6981 52.113 67.5169 52.084 67.34C52.055 67.1631 51.9857 66.9953 51.8815 66.8495C51.7773 66.7036 51.6409 66.5837 51.483 66.499C51.144 66.325 50.758 66.244 50.405 66.096C50.1141 65.9971 49.8731 65.7889 49.7331 65.5155C49.5931 65.242 49.5651 64.9247 49.655 64.631C49.76 64.204 49.929 63.796 50.156 63.421C50.565 62.768 51.034 62.159 51.496 61.545C51.758 61.192 52.074 60.879 52.345 60.531C52.4603 60.4113 52.5278 60.2536 52.5346 60.0875C52.5415 59.9214 52.4871 59.7587 52.382 59.63C52.2541 59.5224 52.0935 59.4615 51.9265 59.4573C51.7595 59.4532 51.596 59.5059 51.463 59.607C51.076 59.817 50.711 60.064 50.373 60.346C48.6842 61.8126 47.5904 63.8472 47.3 66.065ZM67.34 88.746C65.4197 88.591 63.6091 87.7881 62.205 86.469C61.3765 85.7294 60.8251 84.7293 60.642 83.634C60.322 81.584 61.646 80.045 63.723 80.131C64.2174 80.1597 64.7065 80.2477 65.18 80.393C67.084 80.953 69.072 81.182 71.054 81.068C71.936 80.968 72.827 81.148 73.601 81.583C74.0672 81.8297 74.4462 82.2137 74.6868 82.6831C74.9274 83.1525 75.0179 83.6845 74.946 84.207C74.8899 84.7843 74.7138 85.3435 74.4289 85.8487C74.1441 86.354 73.7568 86.7941 73.292 87.141C71.7984 88.2978 69.9422 88.8858 68.055 88.8C67.818 88.7669 67.5792 88.7489 67.34 88.746ZM63.167 85.904C64.534 86.979 65.937 87.741 67.565 87.797C68.967 87.842 70.406 87.711 71.599 86.79C70.329 84.582 65.466 83.843 63.169 85.888L63.167 85.904ZM122.404 67.49C122.583 68.076 122.629 68.694 122.537 69.3C122.508 69.7046 122.332 70.0846 122.042 70.3685C121.752 70.6525 121.369 70.8208 120.964 70.842C120.696 70.857 120.428 70.8072 120.183 70.697C119.617 70.4567 119.099 70.1182 118.651 69.697C117.399 68.591 116.144 67.475 114.964 66.286C113.199 64.5807 111.283 63.0378 109.241 61.676C103.034 57.3908 96.2478 54.0128 89.087 51.644C86.5129 50.7645 83.9029 49.9938 81.264 49.334L81.566 48.134C83.5009 48.6118 85.4241 49.1359 87.334 49.706C94.544 51.871 101.263 55.084 107.709 58.916C111.622 61.3112 115.227 64.1757 118.445 67.446C119.003 68.001 119.551 68.57 120.129 69.086C120.387 69.259 120.665 69.399 120.958 69.501C121.525 68.793 121.267 68.137 121.051 67.516C120.183 64.9231 119.117 62.4007 117.863 59.971C117.686 59.641 117.526 59.315 117.316 58.994L118.46 58.463C120.245 61.233 121.369 64.346 122.404 67.49Z" fill="black"/>
<path d="M121.071 67.506C121.287 68.128 121.544 68.796 120.978 69.492C120.685 69.3892 120.407 69.2494 120.149 69.076C119.562 68.56 119.039 67.993 118.465 67.438C115.251 64.1714 111.649 61.3095 107.741 58.916C101.294 55.084 94.5551 51.869 87.3651 49.706C85.4561 49.1329 83.5328 48.6088 81.5971 48.134C79.4182 47.5923 77.2323 47.0789 75.0401 46.594C72.1111 45.933 69.1701 45.871 66.2111 45.873C63.4291 45.866 60.6311 45.89 57.8491 46.032C51.3267 46.3423 44.8637 47.4211 38.5941 49.246C37.0471 49.706 35.4801 50.123 33.9481 50.634C29.665 52.1022 25.5701 54.0705 21.7481 56.498C21.1321 56.885 20.5121 57.27 19.8751 57.617C19.6021 57.719 19.3181 57.787 19.0291 57.82C18.9721 57.522 18.8541 57.294 18.9081 57.115C19.0392 56.6328 19.2307 56.1691 19.4781 55.735C20.8538 53.4987 22.3948 51.3685 24.0881 49.362C26.4847 46.6079 29.52 44.4832 32.9281 43.174C36.2604 41.8919 39.7027 40.9162 43.2121 40.259C48.1343 39.2722 53.1206 38.6373 58.1331 38.359C62.9298 38.0369 67.7465 38.19 72.5131 38.816C73.5621 38.966 74.6211 39.059 75.6731 39.179C80.2151 39.7803 84.6922 40.7976 89.0481 42.218L89.9021 42.493C94.5102 43.9466 99.0072 45.7313 103.358 47.833C106.493 49.2951 109.46 51.0908 112.21 53.189C114.254 54.7877 115.991 56.7428 117.339 58.96C117.529 59.279 117.709 59.608 117.885 59.937C119.14 62.3747 120.205 64.9055 121.071 67.507V67.506ZM117.976 64.85C118.021 64.7546 118.046 64.6505 118.047 64.5449C118.048 64.4392 118.027 64.3346 117.984 64.238C117.876 64.0411 117.726 63.8705 117.544 63.738C116.018 62.435 114.56 61.045 112.939 59.855C108.505 56.5625 103.716 53.7771 98.6621 51.551C95.5176 50.1172 92.2999 48.8502 89.0221 47.755C86.2021 46.863 83.3221 46.203 80.4561 45.487C76.3881 44.4705 72.2281 43.8661 68.0391 43.683C65.7001 43.583 63.3561 43.672 61.0131 43.645C57.3309 43.613 53.6525 43.8917 50.0171 44.478C44.7781 45.292 39.5981 46.344 34.5771 48.097C30.9679 49.2895 27.4826 50.8287 24.1701 52.693C23.8231 52.873 23.4921 53.081 23.1801 53.316C23.1075 53.3933 23.0531 53.4859 23.0209 53.5869C22.9887 53.688 22.9796 53.7949 22.9941 53.9C23.0103 53.9687 23.0415 54.033 23.0856 54.0881C23.1297 54.1432 23.1855 54.1879 23.2489 54.2188C23.3124 54.2497 23.382 54.2661 23.4525 54.2669C23.5231 54.2676 23.593 54.2526 23.6571 54.223C24.1276 54.0528 24.5838 53.8451 25.0211 53.602C29.2211 51.3892 33.6386 49.6165 38.2031 48.312C42.5487 47.0776 46.9794 46.1652 51.4591 45.582C54.6661 45.1632 57.8959 44.9418 61.1301 44.919C64.8431 44.847 68.4901 45.068 72.1381 45.335C75.8051 45.916 79.4091 46.54 83.0101 47.444C86.6422 48.3193 90.207 49.4536 93.6771 50.838C98.2691 52.716 102.788 54.766 107.007 57.42C110.295 59.4318 113.407 61.7169 116.311 64.251C116.641 64.547 117.006 64.802 117.397 65.01C117.496 65.0313 117.599 65.0277 117.697 64.9994C117.794 64.9712 117.883 64.9191 117.955 64.848L117.976 64.85Z" fill="#32BAE2"/>
<path d="M117.968 64.236C118.011 64.3328 118.032 64.4377 118.03 64.5435C118.029 64.6492 118.004 64.7534 117.959 64.849C117.884 64.9205 117.791 64.9713 117.69 64.9964C117.589 65.0215 117.483 65.0199 117.383 64.992C116.992 64.7842 116.627 64.5297 116.297 64.234C113.393 61.6997 110.28 59.4143 106.993 57.402C102.77 54.744 98.255 52.694 93.663 50.821C90.1929 49.4363 86.6281 48.3017 82.996 47.426C79.396 46.523 75.791 45.899 72.124 45.317C68.474 45.05 64.808 44.827 61.116 44.901C57.8815 44.9238 54.6514 45.1452 51.444 45.564C46.9646 46.1473 42.5343 47.0597 38.189 48.294C33.6242 49.5984 29.2064 51.3712 25.006 53.584C24.5688 53.8277 24.1127 54.0357 23.642 54.206C23.5779 54.235 23.5081 54.2495 23.4377 54.2485C23.3673 54.2474 23.298 54.2308 23.2347 54.1999C23.1715 54.1689 23.1158 54.1244 23.0718 54.0694C23.0278 54.0145 22.9964 53.9505 22.98 53.882C22.9657 53.7771 22.975 53.6703 23.0072 53.5695C23.0394 53.4686 23.0936 53.3762 23.166 53.299C23.478 53.063 23.809 52.855 24.156 52.676C27.4685 50.8113 30.9538 49.2718 34.563 48.079C39.584 46.326 44.764 45.275 50.003 44.46C53.6381 43.8741 57.3162 43.5958 60.998 43.628C63.342 43.654 65.686 43.565 68.025 43.665C72.214 43.848 76.375 44.453 80.442 45.47C83.307 46.186 86.187 46.846 89.007 47.738C92.2766 48.8382 95.486 50.1096 98.622 51.547C103.676 53.7725 108.465 56.5575 112.898 59.85C114.511 61.04 115.977 62.431 117.503 63.734C117.694 63.864 117.853 64.036 117.968 64.236ZM118.46 58.444L117.317 58.974C115.969 56.7574 114.231 54.8027 112.188 53.204C109.438 51.1056 106.47 49.3099 103.335 47.848C98.9841 45.7463 94.4871 43.9616 89.879 42.508L90.263 41.317C95.7541 43.0066 101.08 45.1916 106.176 47.845C109.672 49.663 112.934 51.762 115.654 54.631C115.82 54.756 116 54.861 116.191 54.943C116.231 54.59 116.281 54.336 116.29 54.082L117.545 54.119C117.518 54.355 117.53 54.603 117.524 54.841C117.455 56.1097 117.782 57.3694 118.46 58.444Z" fill="black"/>
<path d="M117.539 54.102L116.284 54.065C116.344 50.321 116.447 46.587 116.428 42.848C116.397 39.663 116.001 36.492 115.249 33.397C113.484 25.937 109.609 19.857 103.485 15.223C98.942 11.778 93.773 9.57898 88.329 7.98298C86.1303 7.34827 83.9099 6.79126 81.672 6.31298C79.11 5.75098 76.55 5.17298 73.894 5.22098C71.662 5.25698 69.427 5.18598 67.194 5.19698C62.561 5.1988 57.9495 5.82545 53.484 7.05998C43.787 9.77398 36.682 15.577 32.382 24.744C30.823 28.1464 29.6458 31.7112 28.872 35.373C28.452 37.28 28.022 39.186 27.61 41.093C27.483 41.696 27.38 42.303 27.266 42.906C27.152 43.511 27.036 44.045 26.879 44.813C27.364 44.564 27.67 44.443 27.937 44.268C30.2143 42.8481 32.6674 41.732 35.234 40.948C40.674 39.202 46.272 38.236 51.928 37.597C55.193 37.204 58.478 36.987 61.766 36.948C63.9975 36.8752 66.2314 36.934 68.456 37.124C71.396 37.462 74.344 37.751 77.28 38.137C79.216 38.392 81.137 38.75 83.034 39.21C85.468 39.815 87.871 40.54 90.264 41.275L89.881 42.466L89.027 42.191C84.6712 40.7706 80.194 39.7533 75.652 39.152L72.492 38.789C67.7255 38.163 62.9087 38.0099 58.112 38.332C53.1 38.61 48.113 39.245 43.191 40.232C39.6816 40.8893 36.2394 41.865 32.907 43.147C29.4989 44.4561 26.4636 46.5808 24.067 49.335C22.3736 51.3414 20.8327 53.4717 19.457 55.708C19.2096 56.1421 19.0181 56.6058 18.887 57.088C18.833 57.267 18.95 57.507 19.007 57.793C19.297 57.76 19.581 57.692 19.854 57.59C20.49 57.251 21.111 56.858 21.728 56.471C25.5497 54.0436 29.6443 52.0753 33.927 50.607C35.459 50.096 37.027 49.679 38.573 49.219C44.8426 47.3941 51.3056 46.3154 57.828 46.005C60.61 45.863 63.41 45.823 66.19 45.845C69.15 45.844 72.09 45.905 75.019 46.567C77.214 47.058 79.399 47.56 81.576 48.107L81.274 49.307C79.694 48.9112 78.1046 48.5545 76.507 48.237C74.3229 47.768 72.1084 47.4542 69.88 47.298C67.1447 47.1409 64.4043 47.0899 61.665 47.145C54.0741 47.2524 46.5289 48.3407 39.217 50.383C35.4629 51.4405 31.8102 52.8296 28.302 54.534C26.352 55.496 24.492 56.633 22.587 57.698C22.099 57.971 21.635 58.284 21.143 58.549C20.803 58.74 20.446 58.899 20.076 59.023C18.435 59.518 17.257 58.481 17.591 56.791C17.702 56.246 17.911 55.726 18.208 55.256C20.075 52.334 21.995 49.451 24.505 47.018C24.997 46.568 25.334 45.975 25.465 45.322C26.1366 41.8701 26.8534 38.4271 27.615 34.994C28.804 29.557 30.658 24.377 33.713 19.677C36.8562 14.8169 41.2612 10.9024 46.457 8.35198C51.155 6.00998 56.18 4.83398 61.369 4.23998C64.1986 3.95163 67.0419 3.81809 69.886 3.83998C70.064 3.82598 70.24 3.79498 70.412 3.74698C70.502 3.54998 70.58 3.34698 70.642 3.13998C71.01 1.64698 72.125 0.979979 73.48 0.604979C73.5903 0.584484 73.7019 0.572449 73.814 0.568979C76.0944 0.312254 78.4033 0.577615 80.566 1.34498C82.164 1.93998 83.186 3.01598 83.114 4.85598C83.131 5.00298 83.17 5.14598 83.23 5.28098C84.136 5.52498 85.092 5.80798 86.061 6.03898C91.3959 7.26026 96.5065 9.30978 101.207 12.113C109.183 16.963 114.317 23.909 116.533 33.001C117.542 37.4155 117.962 41.9442 117.781 46.469C117.704 49.004 117.614 51.549 117.539 54.102ZM81.606 4.76498C81.737 3.62398 81.168 3.02298 80.252 2.68298C78.2076 1.91748 76.0067 1.66477 73.842 1.94698C73.509 1.98398 73.188 2.08698 72.897 2.24998C72.6071 2.37875 72.3727 2.60667 72.2358 2.89278C72.0989 3.1789 72.0684 3.50446 72.15 3.81098C73.755 3.88098 75.309 3.93498 76.86 4.01798C78.41 4.10198 79.95 4.88398 81.606 4.76498Z" fill="black"/>
<path d="M116.281 54.065C116.276 54.32 116.222 54.573 116.182 54.926C115.991 54.844 115.811 54.7389 115.646 54.613C112.925 51.745 109.631 49.642 106.167 47.828C101.071 45.1742 95.7451 42.9889 90.254 41.299C87.87 40.556 85.458 39.831 83.024 39.234C81.1262 38.7741 79.2052 38.4162 77.269 38.162C74.335 37.759 71.387 37.486 68.445 37.148C66.2204 36.9583 63.9865 36.8999 61.755 36.973C58.4664 37.0119 55.1823 37.2282 51.917 37.621C46.262 38.26 40.667 39.211 35.224 40.972C32.6574 41.7558 30.2042 42.8719 27.927 44.292C27.66 44.467 27.354 44.588 26.868 44.837C27.027 44.069 27.142 43.497 27.256 42.931C27.371 42.363 27.473 41.721 27.6 41.118C28.017 39.21 28.45 37.305 28.862 35.397C29.6358 31.7352 30.813 28.1705 32.372 24.768C36.672 15.601 43.777 9.79799 53.474 7.08399C57.9395 5.84946 62.5511 5.22281 67.184 5.22099C69.417 5.21099 71.652 5.28099 73.884 5.24599C76.54 5.19599 79.1 5.77499 81.661 6.33599C83.8993 6.81423 86.12 7.37125 88.319 8.00599C93.764 9.59099 98.919 11.801 103.475 15.246C109.599 19.881 113.474 25.962 115.239 33.421C115.991 36.5158 116.386 39.6864 116.418 42.871C116.444 46.588 116.339 50.33 116.281 54.065ZM84.363 22.635C85.227 20.342 84.506 18.445 82.454 17.533C81.5295 17.0925 80.5022 16.9129 79.4831 17.0135C78.4639 17.1142 77.4916 17.4912 76.671 18.104C76.223 18.419 75.769 18.787 75.315 19.154C74.953 18.73 74.641 18.324 74.302 17.939C73.684 17.1874 72.8846 16.6058 71.9793 16.249C71.074 15.8923 70.0927 15.7721 69.128 15.9C66.91 16.14 65.644 17.558 65.633 19.771C65.6554 21.3516 66.2945 22.8609 67.414 23.977C69.2001 25.8764 71.3977 27.3412 73.838 28.259C74.096 28.359 74.376 28.392 74.65 28.352C77.2812 28.0044 79.7953 27.0489 81.993 25.561C83.068 24.8553 83.8964 23.8332 84.363 22.635Z" fill="#64CCF5"/>
<path d="M82.454 17.534C84.506 18.444 85.227 20.342 84.363 22.634C83.8895 23.8345 83.0524 24.8568 81.969 25.558C79.7713 27.0459 77.2572 28.0014 74.626 28.349C74.351 28.389 74.071 28.357 73.813 28.256C71.3726 27.3383 69.175 25.8734 67.389 23.974C66.2701 22.858 65.6314 21.3491 65.609 19.769C65.626 17.536 66.886 16.137 69.103 15.897C70.0679 15.7692 71.0494 15.8894 71.9549 16.2463C72.8604 16.6033 73.6599 17.1851 74.278 17.937C74.617 18.321 74.94 18.729 75.291 19.152C75.768 18.795 76.197 18.432 76.647 18.102C77.4702 17.4849 78.447 17.1055 79.4709 17.0052C80.4948 16.9048 81.5267 17.0884 82.454 17.534Z" fill="#A2DDF3"/>
<path d="M80.249 2.69397C81.165 3.03397 81.742 3.63597 81.603 4.77597C79.943 4.88197 78.447 4.11297 76.856 4.02597C75.266 3.93697 73.752 3.88697 72.146 3.81797C72.065 3.51147 72.0957 3.18614 72.2328 2.90027C72.3699 2.61441 72.6043 2.3867 72.894 2.25797C73.185 2.09397 73.506 1.99097 73.838 1.95397C76.003 1.67304 78.2049 1.92712 80.249 2.69397Z" fill="#32BAE2"/>
</g>
</g>
<defs>
<linearGradient id="paint0_linear_14_170" x1="134.94" y1="102.208" x2="-5.64831" y2="105.2" gradientUnits="userSpaceOnUse">
<stop stop-color="#B6509E"/>
<stop offset="1" stop-color="#2EBAC6"/>
</linearGradient>
</defs>
</svg>
